<svg xmlns="http://www.w3.org/2000/svg" viewBox="0 0 780.46 669.49"><defs><style>.a{fill:none;stroke-width:4px;}.a,.c{stroke:#000;stroke-miterlimit:10;}.b{fill:#29abe2;}.c{fill:#fff;stroke-width:8.25px;}</style></defs><polyline class="a" points="247 14 247 88 314 88 314 177 391 177 391 86 348.5 43.5 348.5 14"/><polyline class="a" points="423 14 413 58 428 96 428 168 483 168 483 96 509 96 509 51 478.5 20.5"/><polyline class="a" points="546 18 546 66 569 66 569 100 534 100 534 161 638 161 638 96 677 57 636 16"/><circle class="b" cx="247.5" cy="14.5" r="13.5"/><polyline class="a" points="15.79 568.67 89.79 568.67 89.79 501.67 178.79 501.67 178.79 424.67 87.79 424.67 45.29 467.17 15.79 467.17"/><polyline class="a" points="15.79 392.67 59.79 402.67 97.79 387.67 169.79 387.67 169.79 332.67 97.79 332.67 97.79 306.67 52.79 306.67 22.29 337.17"/><polyline class="a" points="19.79 269.67 67.79 269.67 67.79 246.67 101.79 246.67 101.79 281.67 162.79 281.67 162.79 177.67 97.79 177.67 58.79 138.67 17.79 179.67"/><circle class="b" cx="348.5" cy="13.5" r="13.5"/><circle class="b" cx="423.5" cy="15.5" r="13.5"/><circle class="b" cx="479.5" cy="21.5" r="13.5"/><circle class="b" cx="546.5" cy="17.5" r="13.5"/><circle class="b" cx="636.5" cy="16.5" r="13.5"/><circle class="b" cx="14.5" cy="568.5" r="13.5"/><circle class="b" cx="13.5" cy="467.5" r="13.5"/><circle class="b" cx="15.5" cy="392.5" r="13.5"/><circle class="b" cx="21.5" cy="336.5" r="13.5"/><circle class="b" cx="17.5" cy="269.5" r="13.5"/><circle class="b" cx="16.5" cy="179.5" r="13.5"/><rect class="b" x="164" y="136" width="529" height="417" rx="5"/><path d="M1222.67,338.27v403h-515v-403h515m2-14h-519a12,12,0,0,0-12,12v407a12,12,0,0,0,12,12h519a12,12,0,0,0,12-12v-407A12,12,0,0,0,1224.67,324.27Z" transform="translate(-536.67 -195.27)"/><path class="c" d="M1054.71,504.25V795.9s-3.87,47.23-55.46,54.73-68.36-67.48-68.36-67.48-66.43,2.25-92.23-92.21,6.45-126.71,6.45-126.71-7.09-45,11.61-83.22,67.07-61.48,67.07-61.48,21.93-46.48,80-40.48S1054.71,504.25,1054.71,504.25Z" transform="translate(-536.67 -195.27)"/><path d="M927.71,420.81c-.27.8-.58,1.83-.84,2.77s-.53,1.95-.77,2.93q-.72,3-1.31,6-1.15,6-1.78,12.16a138.54,138.54,0,0,0-.34,24.61q.47,6.15,1.51,12.25l.56,3,.64,3c.22,1,.48,2,.72,3l.18.75.08.33.1.34c.14.46.29.93.45,1.4a60.71,60.71,0,0,0,12.26,20.77,46.84,46.84,0,0,0,9.23,7.8,42.81,42.81,0,0,0,11,5,44.22,44.22,0,0,0,6,1.3,49,49,0,0,1,6.35,1.31,46.93,46.93,0,0,1,11.8,5.23,69.31,69.31,0,0,1,18.55,17.36A101.68,101.68,0,0,1,1014.72,574a101,101,0,0,0-13.47-21.2,67.91,67.91,0,0,0-18.79-16.19,44.45,44.45,0,0,0-11.4-4.49,46.53,46.53,0,0,0-6-1A46.76,46.76,0,0,1,958.6,530a46.16,46.16,0,0,1-12.12-4.9,51,51,0,0,1-10.33-8A61.16,61.16,0,0,1,928,506.82a66.4,66.4,0,0,1-6-11.66c-.2-.52-.4-1-.58-1.58l-.14-.41-.13-.43L921,492c-.29-1-.61-2.06-.88-3.1l-.79-3.13-.71-3.15q-1.35-6.3-2.1-12.73a145.31,145.31,0,0,1-.68-25.8q.39-6.45,1.36-12.88.5-3.21,1.14-6.41c.22-1.07.45-2.13.71-3.2s.51-2.1.86-3.3Z" transform="translate(-536.67 -195.27)"/><path d="M841.7,561.3c.42-.43.62-.58.92-.85s.54-.44.81-.65c.54-.44,1.08-.78,1.61-1.16a36.07,36.07,0,0,1,3.29-2,46.54,46.54,0,0,1,6.8-2.94,60.12,60.12,0,0,1,14-2.9l3.52-.27,3.5,0,1.75,0,1.74.11,3.46.21c2.3.21,4.58.56,6.85.83l6.74,1.31-6.83-.18c-2.27.1-4.53.12-6.77.29l-3.36.35-1.67.17-1.65.29-3.29.57-3.22.79a54.85,54.85,0,0,0-12.11,4.66,39.46,39.46,0,0,0-5.26,3.4,25.86,25.86,0,0,0-2.3,1.94c-.34.35-.72.68-1,1-.15.17-.32.35-.44.51a3.76,3.76,0,0,0-.28.36Z" transform="translate(-536.67 -195.27)"/><path d="M926.66,784.69c-.12-.36-.18-.55-.25-.8l-.19-.7c-.13-.47-.22-.91-.33-1.36-.2-.9-.38-1.79-.53-2.68-.3-1.78-.52-3.55-.67-5.32a74.68,74.68,0,0,1-.15-10.57,87.24,87.24,0,0,1,3.68-20.54,102.64,102.64,0,0,1,3.55-9.73c1.38-3.16,2.84-6.28,4.51-9.27a122.24,122.24,0,0,1,11.31-17l.48-.6.63-.23a193.87,193.87,0,0,0,22.74-10.06,123,123,0,0,0,10.7-6.31,62.37,62.37,0,0,0,9.6-7.69c2.87-2.91,5.28-6.17,6.28-10.15a100.18,100.18,0,0,1,4.45-11.88,143.65,143.65,0,0,1,12.25-22,143.55,143.55,0,0,0-11.11,22.52,98.64,98.64,0,0,0-3.82,11.9,28,28,0,0,1-.92,3.13,20,20,0,0,1-1.45,3,31.87,31.87,0,0,1-3.88,5.24,64.33,64.33,0,0,1-9.62,8.54,126.37,126.37,0,0,1-10.66,7,196.47,196.47,0,0,1-22.78,11.47l1.1-.83a116.24,116.24,0,0,0-10,16.78c-1.44,2.91-2.66,5.91-3.81,8.92s-2,6.11-2.84,9.21a80,80,0,0,0-2.43,18.91,65.29,65.29,0,0,0,.61,9.4c.21,1.55.47,3.08.81,4.57.16.75.35,1.49.55,2.21.1.35.2.72.31,1.05l.16.5c0,.15.13.35.14.39Z" transform="translate(-536.67 -195.27)"/><path d="M888.32,649.7a28.85,28.85,0,0,0,6.33-.76c1-.21,2-.52,3-.79s2-.67,2.92-1a46.06,46.06,0,0,0,10.65-6,63.25,63.25,0,0,0,9.06-8.18c.68-.76,1.41-1.47,2.07-2.25l1.94-2.4a41.43,41.43,0,0,0,3.59-4.84,39.14,39.14,0,0,0,6.52-22.39A59.13,59.13,0,0,0,928.31,577a40.18,40.18,0,0,1,7.49,10.78,42.6,42.6,0,0,1,3.91,12.88,38.18,38.18,0,0,1-.66,13.75,40,40,0,0,1-5.48,12.72c-.61,1-1.31,1.89-2,2.81s-1.42,1.76-2.15,2.61l-2.2,2.52c-.76.82-1.59,1.59-2.39,2.37a53.12,53.12,0,0,1-10.74,8.14,39.85,39.85,0,0,1-12.61,4.72c-1.12.17-2.23.31-3.34.43a28.65,28.65,0,0,1-3.34.08A20.89,20.89,0,0,1,888.32,649.7Z" transform="translate(-536.67 -195.27)"/><path d="M925.8,626.46a14.2,14.2,0,0,1,1.14-1c.37-.28.73-.55,1.11-.81a22.53,22.53,0,0,1,2.31-1.4,20.13,20.13,0,0,1,5.09-1.91,16.23,16.23,0,0,1,5.47-.28,14.86,14.86,0,0,1,5.1,1.61,17.67,17.67,0,0,1,4.14,3,27.37,27.37,0,0,1,3.22,3.7,45.64,45.64,0,0,1,4.59,8.34,44,44,0,0,0-5.87-7.23,24,24,0,0,0-3.52-2.83,14.2,14.2,0,0,0-3.87-1.86,11,11,0,0,0-7.79.4,14.43,14.43,0,0,0-3.39,2.06,15.83,15.83,0,0,0-1.5,1.33c-.24.24-.47.48-.68.72a5.22,5.22,0,0,0-.53.66Z" transform="translate(-536.67 -195.27)"/><path d="M1004.69,533.52a56.24,56.24,0,0,0-.29-12.66,73.16,73.16,0,0,0-2.6-12.1,87.85,87.85,0,0,0-10.6-22.07,38.28,38.28,0,0,0-7.62-8.91,25,25,0,0,0-4.7-3.23,22.9,22.9,0,0,0-5.29-2.1,29.24,29.24,0,0,0-11.79-.53,45.53,45.53,0,0,0-12.06,3.56A32.52,32.52,0,0,1,961,468.7a28.74,28.74,0,0,1,13.62-1.46,35.24,35.24,0,0,1,3.48.72,31.05,31.05,0,0,1,3.34,1.22,28.12,28.12,0,0,1,6.12,3.58,37.45,37.45,0,0,1,5.14,4.75,52,52,0,0,1,4.14,5.47,67.69,67.69,0,0,1,10.1,24.55,53.66,53.66,0,0,1,.75,13.26A36.87,36.87,0,0,1,1004.69,533.52Z" transform="translate(-536.67 -195.27)"/><path d="M990.69,485.87c-.28-.58-.42-1-.6-1.42s-.33-.89-.47-1.33c-.28-.89-.52-1.78-.71-2.68a28,28,0,0,1-.65-5.46,22.18,22.18,0,0,1,2.34-10.6,22.74,22.74,0,0,1,6.78-7.93,35.21,35.21,0,0,1,8.84-4.76,34.37,34.37,0,0,0-7.72,6,20.27,20.27,0,0,0-4.78,8,18.05,18.05,0,0,0-.42,8.84,21.86,21.86,0,0,0,1.27,4.25,20,20,0,0,0,.92,2c.16.33.34.64.52.95a8.94,8.94,0,0,0,.51.78Z" transform="translate(-536.67 -195.27)"/><path d="M1014.62,708.18a32.25,32.25,0,0,0-5.1,4c-.79.72-1.52,1.5-2.26,2.26s-1.39,1.61-2.08,2.4a58.55,58.55,0,0,0-6.77,10.57c-3.85,7.38-6.23,15.58-7.92,23.7-1.52,8-1.15,16.26,2,23.75a46,46,0,0,0,15.8,19.31,36.53,36.53,0,0,1-20.57-17,37,37,0,0,1-4.32-13.36,43.38,43.38,0,0,1-.31-7,53.46,53.46,0,0,1,.8-6.93,82.85,82.85,0,0,1,3.77-13.06c.35-1.07.88-2.09,1.32-3.13s.91-2.08,1.45-3.09a58.78,58.78,0,0,1,3.46-5.88,46.85,46.85,0,0,1,9-10.21,39.2,39.2,0,0,1,5.58-3.84A22.7,22.7,0,0,1,1014.62,708.18Z" transform="translate(-536.67 -195.27)"/><path d="M990.84,749.29c-.21.57-.38.91-.57,1.34s-.4.8-.61,1.18c-.41.78-.87,1.53-1.35,2.26a26,26,0,0,1-3.35,4.07,16,16,0,0,1-14.47,4.77,22.31,22.31,0,0,1-4.72-1.45,35,35,0,0,1-8-5.06,33.87,33.87,0,0,0,8.57,3.46,20.35,20.35,0,0,0,4.41.53,13.89,13.89,0,0,0,4.16-.69,12.63,12.63,0,0,0,6.28-4.9,19.72,19.72,0,0,0,2-3.6c.26-.63.52-1.28.72-1.93.11-.33.2-.65.29-1a8.31,8.31,0,0,0,.2-.87Z" transform="translate(-536.67 -195.27)"/><path d="M946.7,707.38l10.07-33.76c.44-1.43.79-2.78,1.3-4.26l.77-2.21c.28-.72.62-1.42.93-2.13a49.49,49.49,0,0,1,4.62-7.88c3.43-4.92,7.15-9.37,9.86-14.4.73-1.23,1.3-2.54,1.91-3.83.33-.63.53-1.32.81-2s.53-1.32.75-2a53.79,53.79,0,0,0,2-8.36c.44-2.84.68-5.76.89-8.67s.35-5.84.45-8.77A284.62,284.62,0,0,0,979.9,574a284.82,284.82,0,0,1,2.64,35.17q0,4.41-.07,8.84c-.09,3-.21,5.89-.54,8.88a56.08,56.08,0,0,1-1.71,8.84c-.2.73-.47,1.43-.7,2.15s-.44,1.45-.76,2.13c-.59,1.39-1.14,2.81-1.85,4.14-2.65,5.44-6.32,10.23-9.39,15.08a46.23,46.23,0,0,0-4,7.46c-.25.65-.53,1.29-.75,1.94l-.59,2c-.4,1.31-.73,2.82-1.1,4.22L952.48,709Z" transform="translate(-536.67 -195.27)"/><path d="M832.82,604.76c.78,6.5,1.93,13.12,3.3,19.62s3,13,5,19.31a134.24,134.24,0,0,0,7.18,18.51,65.22,65.22,0,0,0,10.79,16.36c4.42,4.73,10.1,8.37,16.57,9.08a89.85,89.85,0,0,0,39.55-3.37,85.88,85.88,0,0,0,9.39-3.57,63.66,63.66,0,0,0,8.88-4.76,63.77,63.77,0,0,1-8.71,5.1,85.57,85.57,0,0,1-9.32,3.94,91.32,91.32,0,0,1-40.06,4.89,25.76,25.76,0,0,1-10-3,35.83,35.83,0,0,1-8.39-6.25,68.68,68.68,0,0,1-12-16.76,138.46,138.46,0,0,1-8.11-18.79c-2.27-6.42-4.18-13-5.84-19.55s-3-13.21-4.13-20Z" transform="translate(-536.67 -195.27)"/><path d="M887.35,515.05s9.25-.44,13.1-7.89c3.27-6.79,1.93-17.53,1.93-17.53s.19,7.23,3.46,18.84c4,10.74,9.25,14.9,9.25,14.9s-6.36-6.79-14.64-6.57C890.82,517.24,887.35,515.05,887.35,515.05Z" transform="translate(-536.67 -195.27)"/><path d="M971.15,378.4c1.12-.14,2-.18,3-.22s1.9,0,2.84,0a53.15,53.15,0,0,1,5.64.46,50.3,50.3,0,0,1,10.93,2.74,47.18,47.18,0,0,1,10,5.2,45.34,45.34,0,0,1,8.39,7.49,49.43,49.43,0,0,1,6.33,9.17c.47.79.86,1.63,1.26,2.46s.82,1.66,1.15,2.51.72,1.7,1,2.55l.86,2.6c.54,1.74,1.2,3.45,1.65,5.2l1.29,5.27c.47,1.75.75,3.53,1.08,5.3s.66,3.54,1,5.31a325,325,0,0,1,3.16,42.78c.09,7.14.06,14.28-.15,21.41s-.51,14.26-1,21.37c.26-7.13.32-14.25.27-21.38s-.26-14.24-.6-21.35a323.5,323.5,0,0,0-4.62-42.32c-.35-1.73-.75-3.45-1.12-5.18s-.72-3.45-1.24-5.13l-1.43-5.07c-.49-1.68-1.18-3.29-1.75-4.93l-.9-2.45c-.34-.8-.72-1.57-1.07-2.36s-.75-1.55-1.15-2.31-.79-1.53-1.26-2.25a44.89,44.89,0,0,0-6.08-8.18,40.55,40.55,0,0,0-16.82-10.77A46.86,46.86,0,0,0,976.91,384c-.83,0-1.67,0-2.5.09s-1.69.14-2.34.25Z" transform="translate(-536.67 -195.27)"/><path d="M1053.21,616c-1.86-2.73-3.41-5.42-5-8.19s-3-5.54-4.43-8.35q-4.23-8.43-8-17.08T1029,564.83c-2.11-5.9-4.11-11.83-5.86-17.84,2.05,5.91,4.33,11.73,6.73,17.5s5,11.46,7.72,17.07,5.66,11.12,8.72,16.54c1.55,2.7,3.13,5.37,4.78,8s3.37,5.26,5.15,7.61Z" transform="translate(-536.67 -195.27)"/><path d="M1055.88,674.78a105.51,105.51,0,0,0-9.76,8.84,81.88,81.88,0,0,0-8.46,10.07,40,40,0,0,0-5.83,11.55,19.4,19.4,0,0,0-.79,6.27c0,.53.1,1,.15,1.57s.17,1.1.26,1.64L1032,718c1.43,8.84,2.81,17.71,3.61,26.64a116,116,0,0,1,.54,13.44,50.09,50.09,0,0,1-.6,6.7,18.36,18.36,0,0,1-2.1,6.35,18.27,18.27,0,0,0,1.87-6.38,49.67,49.67,0,0,0,.36-6.68,116.7,116.7,0,0,0-1-13.33c-1.11-8.86-2.79-17.63-4.52-26.4l-.65-3.29c-.11-.56-.23-1.09-.32-1.66s-.19-1.18-.24-1.77a21.71,21.71,0,0,1,.64-7,42.69,42.69,0,0,1,5.75-12.52,86.12,86.12,0,0,1,8.42-10.75,108.93,108.93,0,0,1,9.8-9.52Z" transform="translate(-536.67 -195.27)"/><path d="M899.63,776.93a42.37,42.37,0,0,1-2.26-4.74c-.32-.8-.62-1.61-.92-2.41s-.55-1.62-.8-2.45a51.25,51.25,0,0,1-2-10.05,45.45,45.45,0,0,1,.08-10.23,47.63,47.63,0,0,1,.87-5c.18-.83.46-1.64.69-2.46a25.27,25.27,0,0,1,.78-2.42,75.34,75.34,0,0,1,9.33-17.77,84.77,84.77,0,0,1,13.22-14.94,84.42,84.42,0,0,0-12.44,15.46,74.17,74.17,0,0,0-8.34,17.84,24.14,24.14,0,0,0-.63,2.36c-.18.79-.41,1.57-.55,2.37a46,46,0,0,0-.6,4.82,42.2,42.2,0,0,0,.38,9.66,48.18,48.18,0,0,0,2.32,9.38c.27.76.57,1.5.86,2.25s.63,1.48,1,2.21a38.78,38.78,0,0,0,2.22,4.16Z" transform="translate(-536.67 -195.27)"/><path d="M993.36,853.06a86.62,86.62,0,0,1-5.28-7.26q-2.43-3.7-4.56-7.58a96.74,96.74,0,0,1-7.1-16.12A72.24,72.24,0,0,1,972.84,805a55.75,55.75,0,0,1,1.25-17.3,54.89,54.89,0,0,0,.24,17.12A70.2,70.2,0,0,0,979.22,821a93.45,93.45,0,0,0,8.15,14.85c1.56,2.35,3.22,4.63,5,6.84a82.25,82.25,0,0,0,5.45,6.27Z" transform="translate(-536.67 -195.27)"/><path d="M885.74,605.47a99.18,99.18,0,0,0-14.87-4.55,69.23,69.23,0,0,0-15.22-1.8,40.7,40.7,0,0,0-7.44.71,24.68,24.68,0,0,0-6.74,2.41,16.81,16.81,0,0,0-5.24,4.35,20.79,20.79,0,0,0-3.17,6l-5.59-2.17a26.28,26.28,0,0,1,4.84-7.31,21.84,21.84,0,0,1,7.2-4.9,28.58,28.58,0,0,1,8.14-2.06,42.47,42.47,0,0,1,8.13,0,71.37,71.37,0,0,1,15.49,3.34A100.66,100.66,0,0,1,885.74,605.47Z" transform="translate(-536.67 -195.27)"/><path class="c" d="M1087,513.73V805.38s3.87,47.23,55.47,54.73,68.36-67.48,68.36-67.48,66.42,2.25,92.22-92.22-6.45-126.7-6.45-126.7,7.09-45-11.61-83.22S1217.87,429,1217.87,429s-21.93-46.49-80-40.49S1087,513.73,1087,513.73Z" transform="translate(-536.67 -195.27)"/><path d="M1221.79,427.73c.36,1.21.6,2.21.86,3.3s.49,2.14.71,3.21c.43,2.13.82,4.26,1.14,6.41q1,6.42,1.36,12.88a145.31,145.31,0,0,1-.68,25.8q-.75,6.41-2.1,12.73l-.7,3.15-.8,3.12c-.27,1-.59,2.07-.88,3.11l-.22.77-.13.43-.14.42c-.18.54-.38,1.06-.58,1.58a66.31,66.31,0,0,1-6,11.65,60.76,60.76,0,0,1-8.15,10.22,50.66,50.66,0,0,1-10.33,8,46.23,46.23,0,0,1-12.11,4.9,48.5,48.5,0,0,1-6.42,1.14,46.52,46.52,0,0,0-6.05,1,44.84,44.84,0,0,0-11.4,4.5,67.74,67.74,0,0,0-18.79,16.19,101.17,101.17,0,0,0-13.47,21.19,101.61,101.61,0,0,1,12.64-21.85,69.35,69.35,0,0,1,18.55-17.37,47.29,47.29,0,0,1,11.8-5.23,51.1,51.1,0,0,1,6.35-1.3,45.83,45.83,0,0,0,6-1.31,42.47,42.47,0,0,0,11-5,46.51,46.51,0,0,0,9.23-7.8,60.57,60.57,0,0,0,12.26-20.76c.16-.47.32-1,.45-1.41l.1-.33.08-.33.19-.75c.23-1,.49-2,.71-3l.64-3,.56-3c.7-4.05,1.2-8.14,1.51-12.24a139.61,139.61,0,0,0-.33-24.62c-.41-4.08-1-8.14-1.79-12.15q-.57-3-1.31-6c-.24-1-.5-2-.77-2.93s-.57-2-.84-2.78Z" transform="translate(-536.67 -195.27)"/><path d="M1293.14,576.64s-.18-.24-.27-.37-.3-.33-.45-.5c-.29-.35-.67-.68-1-1a27.75,27.75,0,0,0-2.3-2,39.82,39.82,0,0,0-5.26-3.4,54.66,54.66,0,0,0-12.11-4.66l-3.22-.79-3.29-.57-1.65-.28-1.67-.18-3.36-.35c-2.24-.16-4.5-.19-6.77-.29l-6.82.18,6.73-1.3c2.27-.27,4.55-.63,6.85-.83l3.47-.22,1.74-.1h1.74l3.51,0,3.51.26a60.53,60.53,0,0,1,14,2.9,46.6,46.6,0,0,1,6.8,2.95,33.8,33.8,0,0,1,3.29,2c.54.39,1.08.72,1.61,1.16.27.22.53.41.81.65a12,12,0,0,1,.92.85Z" transform="translate(-536.67 -195.27)"/><path d="M1206.55,791.09s.09-.23.14-.38l.16-.5c.11-.34.21-.7.31-1.05.2-.73.39-1.46.55-2.21.34-1.5.61-3,.82-4.57a66.75,66.75,0,0,0,.6-9.4,79.91,79.91,0,0,0-2.43-18.91q-1.18-4.67-2.84-9.21c-1.14-3-2.37-6-3.81-8.92a116.24,116.24,0,0,0-10-16.78l1.1.83a196.47,196.47,0,0,1-22.78-11.47,126.48,126.48,0,0,1-10.66-7,65.27,65.27,0,0,1-9.62-8.53,31.53,31.53,0,0,1-3.88-5.25,19.5,19.5,0,0,1-1.44-3,26.09,26.09,0,0,1-.93-3.13,99.21,99.21,0,0,0-3.82-11.9,144,144,0,0,0-11.11-22.52,144.12,144.12,0,0,1,12.25,22.05,101.5,101.5,0,0,1,4.45,11.88c1,4,3.41,7.24,6.28,10.15a62.79,62.79,0,0,0,9.6,7.7,123.11,123.11,0,0,0,10.71,6.3A189.75,189.75,0,0,0,1193,715.32l.64.24.47.6a122.14,122.14,0,0,1,11.31,17c1.67,3,3.13,6.11,4.51,9.27a102.83,102.83,0,0,1,3.55,9.74,87.59,87.59,0,0,1,3.69,20.53,76.34,76.34,0,0,1-.16,10.58c-.15,1.77-.36,3.54-.67,5.31-.15.89-.33,1.78-.53,2.68-.11.45-.2.9-.33,1.36l-.19.7c-.07.25-.13.45-.25.81Z" transform="translate(-536.67 -195.27)"/><path d="M1253.34,659.18a21.18,21.18,0,0,1-6.49,1.09,26.62,26.62,0,0,1-3.34-.09q-1.66-.16-3.33-.42a39.84,39.84,0,0,1-12.62-4.73,53.07,53.07,0,0,1-10.74-8.13c-.8-.78-1.63-1.55-2.39-2.37l-2.2-2.52c-.73-.86-1.47-1.66-2.14-2.61s-1.39-1.83-2-2.82a39.77,39.77,0,0,1-5.49-12.71,38.23,38.23,0,0,1-.66-13.76,42.82,42.82,0,0,1,3.91-12.87,40.2,40.2,0,0,1,7.5-10.79,59.18,59.18,0,0,0-6.12,24.07,39.17,39.17,0,0,0,6.52,22.4,42.29,42.29,0,0,0,3.59,4.84l1.94,2.39c.66.78,1.39,1.49,2.07,2.26a62.59,62.59,0,0,0,9.06,8.17,46.26,46.26,0,0,0,10.65,6c1,.37,1.93.72,2.92,1s2,.58,3,.78A28.11,28.11,0,0,0,1253.34,659.18Z" transform="translate(-536.67 -195.27)"/><path d="M1210.84,640.44a5.22,5.22,0,0,0-.53-.66c-.21-.25-.44-.49-.67-.72a17.29,17.29,0,0,0-1.5-1.34,14.66,14.66,0,0,0-3.4-2.05,11.08,11.08,0,0,0-7.79-.41,14.53,14.53,0,0,0-3.87,1.87,24.58,24.58,0,0,0-3.52,2.82,44.9,44.9,0,0,0-5.87,7.23,45.61,45.61,0,0,1,4.6-8.33,26,26,0,0,1,3.21-3.7,17.7,17.7,0,0,1,4.14-3,15.15,15.15,0,0,1,5.1-1.61,16,16,0,0,1,5.47.29,19.62,19.62,0,0,1,5.09,1.91,22.53,22.53,0,0,1,2.31,1.4q.57.38,1.11.81a13.56,13.56,0,0,1,1.15,1Z" transform="translate(-536.67 -195.27)"/><path d="M1137,543a37.1,37.1,0,0,1-3-12.74,53.69,53.69,0,0,1,.75-13.26,67.6,67.6,0,0,1,10.11-24.55A49.54,49.54,0,0,1,1149,487a36.83,36.83,0,0,1,5.14-4.75,28.4,28.4,0,0,1,6.12-3.59,30.39,30.39,0,0,1,3.35-1.21,29.43,29.43,0,0,1,3.48-.72,28.59,28.59,0,0,1,13.61,1.46,32.52,32.52,0,0,1,11.26,6.78,45.56,45.56,0,0,0-12.06-3.57,29.61,29.61,0,0,0-11.79.53,23.07,23.07,0,0,0-5.29,2.1,26.32,26.32,0,0,0-4.7,3.23,39.19,39.19,0,0,0-7.62,8.91,88,88,0,0,0-10.6,22.07,73.27,73.27,0,0,0-2.6,12.11A56.24,56.24,0,0,0,1137,543Z" transform="translate(-536.67 -195.27)"/><path d="M1145.14,492a7.39,7.39,0,0,0,.51-.79c.18-.3.36-.62.52-.94a21.5,21.5,0,0,0,.93-2,23.24,23.24,0,0,0,1.27-4.24,18.17,18.17,0,0,0-.43-8.84,20.09,20.09,0,0,0-4.78-7.95,34.41,34.41,0,0,0-7.72-6,35.57,35.57,0,0,1,8.84,4.77,22.74,22.74,0,0,1,6.78,7.93,22.14,22.14,0,0,1,2.34,10.59,27.8,27.8,0,0,1-.65,5.46c-.19.9-.43,1.8-.71,2.68-.14.45-.3.89-.46,1.33a13.83,13.83,0,0,1-.61,1.43Z" transform="translate(-536.67 -195.27)"/><path d="M1127,717.65a22.92,22.92,0,0,1,6.2,2.5,40.36,40.36,0,0,1,5.58,3.84,47,47,0,0,1,9,10.2,59,59,0,0,1,3.47,5.89c.53,1,1,2,1.44,3.08s1,2.07,1.32,3.14a82.55,82.55,0,0,1,3.77,13.06,53.11,53.11,0,0,1,.8,6.92,43.55,43.55,0,0,1-.31,7,36.51,36.51,0,0,1-24.89,30.34,46.08,46.08,0,0,0,15.8-19.31,41.39,41.39,0,0,0,2-23.76c-1.69-8.12-4.06-16.32-7.92-23.7a58,58,0,0,0-6.77-10.57c-.69-.79-1.35-1.63-2.08-2.4s-1.47-1.53-2.26-2.26A32.38,32.38,0,0,0,1127,717.65Z" transform="translate(-536.67 -195.27)"/><path d="M1157.31,756.89a6.2,6.2,0,0,0,.19.88c.09.32.19.65.29,1,.21.66.46,1.3.73,1.94a19.1,19.1,0,0,0,2,3.6,12.69,12.69,0,0,0,6.28,4.9,13.89,13.89,0,0,0,4.16.69,19.7,19.7,0,0,0,4.41-.54,34.06,34.06,0,0,0,8.57-3.45,34.64,34.64,0,0,1-8,5,21.59,21.59,0,0,1-4.72,1.46,16.68,16.68,0,0,1-5.14.07,16.87,16.87,0,0,1-9.33-4.85,25.91,25.91,0,0,1-3.35-4.06c-.48-.74-.94-1.48-1.35-2.26-.21-.39-.41-.78-.6-1.19s-.37-.77-.58-1.33Z" transform="translate(-536.67 -195.27)"/><path d="M1189.18,718.46l-8.63-34.18c-.36-1.4-.7-2.9-1.09-4.22l-.59-2c-.23-.65-.51-1.29-.76-1.93a45.9,45.9,0,0,0-4-7.47c-3.07-4.85-6.74-9.63-9.39-15.08-.71-1.33-1.26-2.74-1.85-4.13-.31-.69-.5-1.43-.76-2.13s-.5-1.43-.7-2.16a55.86,55.86,0,0,1-1.71-8.84c-.33-3-.44-5.93-.54-8.88s-.09-5.89-.07-8.84a285,285,0,0,1,2.64-35.17,284.85,284.85,0,0,0-1.14,35.16c.1,2.92.24,5.84.45,8.76s.45,5.84.89,8.67a52.7,52.7,0,0,0,2,8.36c.21.68.5,1.34.74,2s.48,1.34.81,2c.61,1.29,1.18,2.59,1.91,3.82,2.71,5,6.43,9.48,9.86,14.4a50.39,50.39,0,0,1,4.62,7.88c.31.71.65,1.41.93,2.14l.77,2.21c.51,1.47.86,2.83,1.3,4.25L1195,716.86Z" transform="translate(-536.67 -195.27)"/><path d="M1314.79,615c-1.08,6.83-2.49,13.42-4.13,20s-3.57,13.13-5.84,19.55a137.22,137.22,0,0,1-8.11,18.79,68.55,68.55,0,0,1-12,16.77,36.11,36.11,0,0,1-8.39,6.25,25.93,25.93,0,0,1-10,3,91.68,91.68,0,0,1-20.35-.22,90.52,90.52,0,0,1-19.71-4.67,86.56,86.56,0,0,1-9.31-3.94,63.59,63.59,0,0,1-8.71-5.1,63,63,0,0,0,8.87,4.76,85.88,85.88,0,0,0,9.39,3.57,90.25,90.25,0,0,0,39.55,3.37c6.48-.72,12.15-4.36,16.58-9.08a65.7,65.7,0,0,0,10.78-16.37,133.75,133.75,0,0,0,7.18-18.51c2-6.34,3.61-12.8,5-19.31s2.52-13.12,3.3-19.61Z" transform="translate(-536.67 -195.27)"/><path d="M1254.31,524.52s-9.25-.44-13.1-7.89c-3.27-6.79-1.92-17.52-1.92-17.52s-.2,7.23-3.47,18.84c-4,10.73-9.24,14.9-9.24,14.9s6.35-6.8,14.63-6.58C1250.84,526.71,1254.31,524.52,1254.31,524.52Z" transform="translate(-536.67 -195.27)"/><path d="M1169.59,393.8c-.64-.1-1.54-.19-2.34-.24s-1.66-.09-2.5-.1a47,47,0,0,0-5,.24,45.17,45.17,0,0,0-9.84,2.1,40.6,40.6,0,0,0-16.83,10.76,44.62,44.62,0,0,0-6.08,8.19c-.46.72-.85,1.48-1.26,2.25s-.81,1.51-1.15,2.3-.73,1.57-1.06,2.37l-.91,2.45c-.57,1.64-1.26,3.24-1.75,4.93l-1.43,5.06c-.52,1.68-.86,3.42-1.24,5.14s-.77,3.45-1.12,5.18a323.12,323.12,0,0,0-4.62,42.32c-.34,7.11-.56,14.23-.6,21.35s0,14.25.27,21.37c-.51-7.11-.82-14.23-1-21.36s-.25-14.27-.16-21.41a323.47,323.47,0,0,1,3.17-42.79c.29-1.77.63-3.54,1-5.31s.61-3.54,1.08-5.29l1.3-5.27c.44-1.75,1.1-3.47,1.64-5.2l.86-2.6c.32-.86.69-1.7,1-2.55s.75-1.68,1.15-2.51.79-1.67,1.26-2.47a49.33,49.33,0,0,1,6.34-9.17,44.56,44.56,0,0,1,8.38-7.48,46.77,46.77,0,0,1,10-5.21,51,51,0,0,1,10.94-2.73,50.28,50.28,0,0,1,5.63-.47c.94,0,1.89,0,2.85,0s1.85.08,3,.22Z" transform="translate(-536.67 -195.27)"/><path d="M1085.45,623.19c1.79-2.36,3.51-5,5.15-7.61s3.23-5.31,4.78-8q4.59-8.13,8.72-16.53t7.72-17.07c2.4-5.77,4.68-11.6,6.73-17.51-1.75,6-3.75,11.95-5.86,17.85s-4.41,11.73-6.88,17.51-5.13,11.45-8,17.08c-1.42,2.81-2.88,5.59-4.42,8.35s-3.11,5.45-5,8.18Z" transform="translate(-536.67 -195.27)"/><path d="M1088.12,681.33a109,109,0,0,1,9.81,9.51,86.89,86.89,0,0,1,8.41,10.76,43,43,0,0,1,5.76,12.52,22,22,0,0,1,.63,7c0,.59-.16,1.17-.24,1.76s-.21,1.11-.31,1.66l-.66,3.29c-1.73,8.77-3.41,17.55-4.52,26.4a114.63,114.63,0,0,0-1,13.34,47.93,47.93,0,0,0,.35,6.67,18.08,18.08,0,0,0,1.88,6.38,18.19,18.19,0,0,1-2.11-6.34,48.62,48.62,0,0,1-.59-6.71,116.07,116.07,0,0,1,.53-13.44c.8-8.93,2.18-17.8,3.61-26.63l.54-3.31c.08-.55.19-1.11.25-1.65s.13-1,.16-1.56a19.78,19.78,0,0,0-.8-6.28,40.26,40.26,0,0,0-5.83-11.55,83.39,83.39,0,0,0-8.46-10.07,105.4,105.4,0,0,0-9.76-8.83Z" transform="translate(-536.67 -195.27)"/><path d="M1238.85,784.41a39.59,39.59,0,0,0,2.22-4.15c.34-.73.65-1.47,1-2.21s.6-1.5.86-2.26a47.83,47.83,0,0,0,2.32-9.38,42.2,42.2,0,0,0,.38-9.66,43.76,43.76,0,0,0-.6-4.82c-.14-.79-.37-1.57-.55-2.37s-.35-1.58-.63-2.35a74.41,74.41,0,0,0-8.34-17.85A83.94,83.94,0,0,0,1223,713.91a84.42,84.42,0,0,1,13.22,14.94,75.55,75.55,0,0,1,9.34,17.77c.32.77.52,1.61.77,2.42s.51,1.62.69,2.45a47.82,47.82,0,0,1,.87,5,44.87,44.87,0,0,1,.08,10.23,50.81,50.81,0,0,1-2,10c-.25.82-.53,1.63-.8,2.44s-.6,1.61-.92,2.41a41.55,41.55,0,0,1-2.26,4.74Z" transform="translate(-536.67 -195.27)"/><path d="M1143.88,858.48a82.43,82.43,0,0,0,5.45-6.28c1.74-2.21,3.4-4.49,5-6.84a93.45,93.45,0,0,0,8.15-14.85,70.23,70.23,0,0,0,4.9-16.27,55.13,55.13,0,0,0,.23-17.11,55.69,55.69,0,0,1,1.25,17.29,72.22,72.22,0,0,1-3.58,17.16,96.28,96.28,0,0,1-7.1,16.11q-2.12,3.87-4.56,7.58a88.42,88.42,0,0,1-5.28,7.27Z" transform="translate(-536.67 -195.27)"/><path d="M1255.92,614.94a101.77,101.77,0,0,1,14.47-6,71.35,71.35,0,0,1,15.5-3.35,43.19,43.19,0,0,1,8.12,0,28.52,28.52,0,0,1,8.14,2.07,21.73,21.73,0,0,1,7.2,4.9,26.13,26.13,0,0,1,4.84,7.31l-5.59,2.17a20.85,20.85,0,0,0-3.17-6,16.88,16.88,0,0,0-5.23-4.34,24.53,24.53,0,0,0-6.75-2.41,38.94,38.94,0,0,0-7.44-.71,68.63,68.63,0,0,0-15.22,1.8A100.32,100.32,0,0,0,1255.92,614.94Z" transform="translate(-536.67 -195.27)"/></svg>